# xmcd
#
# Track frame offsets:
#	150
#	10181
#	18437
#	27835
#	36379
#	45064
#	54604
#	63326
#	73388
#	86202
#	94825
#	103600
#	112535
#	125518
#	137955
#	149132
#	161118
#	170977
#	182458
#	191541
#	202224
#	213321
#	223032
#	233759
#	246467
#	258916
#	267879
#	278928
#	292758
#	309482
#	321436
#	332317
#
# Disc length: 4587 seconds
# Revision: 3
# Processed by: cddbd v1.5.2PL0 Copyright (c) Steve Scherf et al.
# Submitted via: dBpowerAMP V12.0
#
DISCID=e611e920
DTITLE=Johnny Cash - Singles Collection Vol 1
DYEAR=2012
DGENRE=Country
TTITLE0=All Over Again
TTITLE1=Oh What A Dream
TTITLE2=I Got Stripes
TTITLE3=I'll Remember You
TTITLE4=Lorena
TTITLE5=Smiling Bill McCall
TTITLE6=Second Honeymoon
TTITLE7=The Girl In Saskatoon
TTITLE8=Locomotive Man
TTITLE9=Tall Man
TTITLE10=A Little At A Time
TTITLE11=Pick A Bale O' Cotton
TTITLE12=Send A Picture Of Mother
TTITLE13=The Matador
TTITLE14=Dark As A Dungeon
TTITLE15=Hammers and Nails
TTITLE16=Time and Time Again
TTITLE17=Sons of Katie Elder
TTITLE18=Certain Kinda Hurtin
TTITLE19=Cotton Pickin Hands
TTITLE20=Bottom of The Mountain
TTITLE21=You Beat All I Ever Saw
TTITLE22=Put The Sugar To Bed
TTITLE23=The Wind Changes
TTITLE24=Red Velvet
TTITLE25=Rosanna's Going Wild
TTITLE26=Roll Call
TTITLE27=The Folk Singer
TTITLE28=Girl From The North Country
TTITLE29=What Is Truth
TTITLE30=Little Bit of Yesterday
TTITLE31=A Song To Mama
EXTD=
EXTT0=
EXTT1=
EXTT2=
EXTT3=
EXTT4=
EXTT5=
EXTT6=
EXTT7=
EXTT8=
EXTT9=
EXTT10=
EXTT11=
EXTT12=
EXTT13=
EXTT14=
EXTT15=
EXTT16=
EXTT17=
EXTT18=
EXTT19=
EXTT20=
EXTT21=
EXTT22=
EXTT23=
EXTT24=
EXTT25=
EXTT26=
EXTT27=
EXTT28=
EXTT29=
EXTT30=
EXTT31=
PLAYORDER=
